<svg width="32" height="32" viewBox="0 0 32 32" fill="none" xmlns="http://www.w3.org/2000/svg">
<path d="M17.6 19.1999C17.6 20.6132 16.9867 21.8932 16 22.7732C15.1467 23.5466 14.0266 23.9999 12.8 23.9999C10.1466 23.9999 8 21.8532 8 19.1999C8 16.9866 9.5067 15.1199 11.5334 14.5732C12.08 15.9599 13.2667 17.0399 14.7333 17.4399C15.1333 17.5466 15.56 17.6132 16 17.6132C16.44 17.6132 16.8667 17.5599 17.2667 17.4399C17.48 17.9732 17.6 18.5732 17.6 19.1999Z" stroke="currentColor" stroke-width="2" stroke-linecap="round" stroke-linejoin="round"/>
<path d="M20.8 12.8C20.8 13.4267 20.68 14.0267 20.4666 14.5733C19.92 15.96 18.7334 17.04 17.2667 17.44C16.8667 17.5467 16.44 17.6133 16 17.6133C15.56 17.6133 15.1333 17.56 14.7333 17.44C13.2667 17.04 12.08 15.9733 11.5334 14.5733C11.32 14.0267 11.2 13.4267 11.2 12.8C11.2 10.1467 13.3467 8 16 8C18.6533 8 20.8 10.1467 20.8 12.8Z" stroke="currentColor" stroke-width="2" stroke-linecap="round" stroke-linejoin="round"/>
<path d="M24 19.2001C24 21.8534 21.8534 24.0001 19.2 24.0001C17.9734 24.0001 16.8533 23.5334 16 22.7734C16.9867 21.9067 17.6 20.6267 17.6 19.2001C17.6 18.5734 17.48 17.9734 17.2667 17.4267C18.7333 17.0267 19.92 15.9601 20.4666 14.5601C22.4933 15.1201 24 16.9867 24 19.2001Z" stroke="currentColor" stroke-width="2" stroke-linecap="round" stroke-linejoin="round"/>
<path d="M12 29.3334H20C26.6667 29.3334 29.3333 26.6667 29.3333 20.0001V12.0001C29.3333 5.33341 26.6667 2.66675 20 2.66675H12C5.33333 2.66675 2.66666 5.33341 2.66666 12.0001V20.0001C2.66666 26.6667 5.33333 29.3334 12 29.3334Z" stroke="currentColor" stroke-width="2" stroke-linecap="round" stroke-linejoin="round"/>
</svg>
