<?xml version="1.0" encoding="utf-8"?><svg viewBox="0 0 99 64" xmlns="http://www.w3.org/2000/svg" xmlns:xlink="http://www.w3.org/1999/xlink"><style>:root>svg{display:none}:root>svg:target{display:block}</style><svg fill="none" viewBox="0 0 32 32" id="align-vertically" xmlns="http://www.w3.org/2000/svg"><path d="M23.2 25.667H8.8c-2 0-2.8-.854-2.8-2.974v-1.386c0-2.12.8-2.974 2.8-2.974h14.4c2 0 2.8.854 2.8 2.974v1.386c0 2.12-.8 2.974-2.8 2.974zM20.533 14.333h-9.066c-2 0-2.8-.853-2.8-2.973V9.973c0-2.12.8-2.973 2.8-2.973h9.066c2 0 2.8.853 2.8 2.973v1.387c0 2.12-.8 2.973-2.8 2.973zM16 29.333v-3.2M16 17.333v-2.666M16 2.667v3.586" stroke="currentColor" stroke-width="2" stroke-linecap="round" stroke-linejoin="round"/></svg><svg fill="none" viewBox="0 0 25 25" id="arrow-right" xmlns="http://www.w3.org/2000/svg"><path d="M9.7 18.8a1 1 0 010-1.4l5.3-5.3-5.3-5.3A1 1 0 0111 5.4l6 6c.4.4.4 1 0 1.4l-6 6a1 1 0 01-1.4 0z" fill="#fff"/></svg><svg fill="none" viewBox="0 0 24 25" id="arrow-right-up" xmlns="http://www.w3.org/2000/svg"><path d="M8 7.5a1 1 0 011-1h8a1 1 0 011 1v8a1 1 0 11-2 0V9.914l-8.293 8.293a1 1 0 01-1.414-1.414L14.586 8.5H9a1 1 0 01-1-1z" fill="currentColor"/></svg><svg fill="none" viewBox="0 0 99 32" id="broke-line" xmlns="http://www.w3.org/2000/svg"><path d="M2 2l23.3 24.2L39.7 8.6 57 26.2 76 8.6 97 30" stroke="#E7E7E7" stroke-width="4"/></svg><svg fill="none" viewBox="0 0 32 32" id="camera" xmlns="http://www.w3.org/2000/svg"><path d="M9.013 29.333h13.974c3.68 0 5.146-2.253 5.32-5L29 13.32C29.187 10.44 26.893 8 24 8c-.813 0-1.56-.467-1.933-1.187l-.96-1.933c-.614-1.213-2.214-2.213-3.574-2.213H14.48c-1.373 0-2.973 1-3.587 2.213l-.96 1.933A2.191 2.191 0 018 8c-2.893 0-5.187 2.44-5 5.32l.693 11.013c.16 2.747 1.64 5 5.32 5zM14 10.667h4" stroke="currentColor" stroke-width="2" stroke-linecap="round" stroke-linejoin="round"/><path d="M16 24a4.342 4.342 0 004.333-4.333A4.342 4.342 0 0016 15.333a4.342 4.342 0 00-4.333 4.334A4.342 4.342 0 0016 24z" stroke="currentColor" stroke-width="2" stroke-linecap="round" stroke-linejoin="round"/></svg><svg fill="none" viewBox="0 0 50 50" id="circle" xmlns="http://www.w3.org/2000/svg"><circle cx="24.8" cy="24.9" r="22.5" transform="rotate(-27.4 24.8 25)" stroke="#fff" stroke-width="3.6"/></svg><svg fill="none" viewBox="0 0 32 32" id="code" xmlns="http://www.w3.org/2000/svg"><path d="M12 17.333a5.623 5.623 0 00-2.16 1.907 1.37 1.37 0 000 1.52A5.623 5.623 0 0012 22.667M20.28 17.333a5.623 5.623 0 012.16 1.907 1.37 1.37 0 010 1.52 5.623 5.623 0 01-2.16 1.907" stroke="currentColor" stroke-width="2" stroke-linecap="round" stroke-linejoin="round"/><path d="M12 29.333h8c6.667 0 9.333-2.666 9.333-9.333v-8c0-6.667-2.666-9.333-9.333-9.333h-8c-6.667 0-9.333 2.666-9.333 9.333v8c0 6.667 2.666 9.333 9.333 9.333zM2.973 10.68l25.627-.013" stroke="currentColor" stroke-width="2" stroke-linecap="round" stroke-linejoin="round"/></svg><svg fill="none" viewBox="0 0 32 32" id="design" xmlns="http://www.w3.org/2000/svg"><path d="M17.6 19.2a4.777 4.777 0 01-1.6 3.573A4.734 4.734 0 0112.8 24a4.797 4.797 0 01-1.267-9.427A4.814 4.814 0 0016 17.613c.44 0 .867-.053 1.267-.173.213.533.333 1.133.333 1.76z" stroke="currentColor" stroke-width="2" stroke-linecap="round" stroke-linejoin="round"/><path d="M20.8 12.8c0 .627-.12 1.227-.333 1.773A4.814 4.814 0 0116 17.613c-.44 0-.867-.053-1.267-.173A4.783 4.783 0 0111.2 12.8c0-2.653 2.147-4.8 4.8-4.8s4.8 2.147 4.8 4.8z" stroke="currentColor" stroke-width="2" stroke-linecap="round" stroke-linejoin="round"/><path d="M24 19.2a4.797 4.797 0 01-8 3.573 4.734 4.734 0 001.6-3.573c0-.627-.12-1.227-.333-1.773a4.783 4.783 0 003.2-2.867A4.827 4.827 0 0124 19.2z" stroke="currentColor" stroke-width="2" stroke-linecap="round" stroke-linejoin="round"/><path d="M12 29.333h8c6.667 0 9.333-2.666 9.333-9.333v-8c0-6.667-2.666-9.333-9.333-9.333h-8c-6.667 0-9.333 2.666-9.333 9.333v8c0 6.667 2.666 9.333 9.333 9.333z" stroke="currentColor" stroke-width="2" stroke-linecap="round" stroke-linejoin="round"/></svg><svg fill="none" viewBox="0 0 32 32" id="layer" xmlns="http://www.w3.org/2000/svg"><path d="M17.347 3.893l7.866 3.494c2.267 1 2.267 2.653 0 3.653l-7.866 3.493c-.894.4-2.36.4-3.254 0L6.227 11.04c-2.267-1-2.267-2.653 0-3.653l7.866-3.494c.894-.4 2.36-.4 3.254 0z" stroke="currentColor" stroke-width="2" stroke-linecap="round" stroke-linejoin="round"/><path d="M4 14.667c0 1.12.84 2.413 1.867 2.866l9.053 4.027a2.65 2.65 0 002.16 0l9.053-4.027C27.16 17.08 28 15.787 28 14.667" stroke="currentColor" stroke-width="2" stroke-linecap="round" stroke-linejoin="round"/><path d="M4 21.333c0 1.24.733 2.36 1.867 2.867l9.053 4.027c.693.306 1.48.306 2.16 0l9.053-4.027A3.143 3.143 0 0028 21.333" stroke="currentColor" stroke-width="2" stroke-linecap="round" stroke-linejoin="round"/></svg><svg fill="none" viewBox="0 0 20 20" id="play" xmlns="http://www.w3.org/2000/svg"><path d="M19.74 9.605L.766.059a.57.57 0 00-.511.003A.448.448 0 000 .455v19.09c0 .162.097.312.255.393a.57.57 0 00.511.003l18.974-9.546c.16-.08.26-.231.26-.395s-.1-.315-.26-.395z" fill="currentColor"/></svg><svg fill="none" viewBox="0 0 50 50" id="plus" xmlns="http://www.w3.org/2000/svg"><path d="M25 8.3c1.2 0 2 1 2 2.1V23h12.6a2 2 0 010 4.2H27v12.5a2 2 0 11-4.2 0V27H10.4a2 2 0 010-4.2H23V10.4c0-1.1 1-2 2.1-2z" fill="#E7E7E7"/></svg><svg fill="none" viewBox="0 0 57 64" id="triangle" xmlns="http://www.w3.org/2000/svg"><path d="M2.5 61.1L4 3.1l49.5 30.2-51 27.8z" stroke="#E7E7E7" stroke-width="3" stroke-linejoin="round"/></svg><svg fill="none" viewBox="0 0 32 32" id="video" xmlns="http://www.w3.org/2000/svg"><path d="M29.333 20v-8c0-6.667-2.666-9.333-9.333-9.333h-8c-6.667 0-9.333 2.666-9.333 9.333v8c0 6.667 2.666 9.333 9.333 9.333h8c6.667 0 9.333-2.666 9.333-9.333zM3.36 9.48h25.28M11.36 2.813v6.48M20.64 2.813v5.88" stroke="currentColor" stroke-width="2" stroke-linecap="round" stroke-linejoin="round"/><path d="M13 19.267v-1.6c0-2.054 1.453-2.894 3.227-1.867l1.386.8 1.387.8c1.773 1.027 1.773 2.707 0 3.733l-1.387.8-1.386.8C14.453 23.76 13 22.92 13 20.867v-1.6 0z" stroke="currentColor" stroke-width="2" stroke-miterlimit="10" stroke-linecap="round" stroke-linejoin="round"/></svg></svg>